<svg width="32" height="32" viewBox="0 0 32 32" fill="none" xmlns="http://www.w3.org/2000/svg">
<path d="M26.4557 23.097C25.9523 22.522 25.5577 21.8679 25.2896 21.164C25.0527 20.5009 24.9295 19.8058 24.9245 19.1053V13.6541C24.9241 11.7586 24.2624 9.917 23.0434 8.41922C21.8245 6.92144 20.1175 5.85255 18.1914 5.3808C18.2405 5.20425 18.2643 5.02213 18.2623 4.83949C18.2832 4.53977 18.2394 4.23916 18.1334 3.95627C18.0275 3.67338 17.8617 3.41425 17.6464 3.19492C17.431 2.97559 17.1707 2.80076 16.8816 2.68122C16.5925 2.56168 16.2807 2.5 15.9655 2.5C15.6504 2.5 15.3386 2.56168 15.0495 2.68122C14.7604 2.80076 14.5001 2.97559 14.2848 3.19492C14.0695 3.41425 13.9037 3.67338 13.7977 3.95627C13.6917 4.23916 13.6478 4.53977 13.6687 4.83949C13.6717 5.02183 13.6956 5.20337 13.7398 5.3808C11.8145 5.85405 10.1085 6.92331 8.88984 8.42075C7.67117 9.9182 7.00877 11.759 7.00661 13.6541V19.028C7.00709 19.7598 6.87324 20.4859 6.61112 21.1737C6.36255 21.88 5.97734 22.5356 5.47541 23.1067C5.1883 23.4396 5.02218 23.8522 5.00207 24.2827C4.98196 24.7131 5.10895 25.1382 5.36389 25.494C5.55254 25.7636 5.80932 25.9837 6.11054 26.1341C6.41177 26.2844 6.74773 26.3601 7.08768 26.3542H12.6953C12.9472 26.9871 13.3957 27.5317 13.981 27.9151C14.5663 28.2986 15.2604 28.5026 15.9706 28.5C16.7669 28.4984 17.5391 28.2394 18.1609 27.7654C18.6479 27.3976 19.0197 26.9094 19.2358 26.3542H24.8535C25.2579 26.3768 25.6602 26.2834 26.0084 26.086C26.3566 25.8887 26.6348 25.5965 26.8071 25.2471C26.9795 24.8976 27.0383 24.5071 26.9756 24.1256C26.913 23.7442 26.7319 23.3892 26.4557 23.1067V23.097ZM25.7054 24.6531C25.6438 24.8212 25.5285 24.9666 25.3757 25.0689C25.2229 25.1712 25.0402 25.2253 24.8535 25.2235H7.08768C6.93945 25.2258 6.79302 25.1925 6.66187 25.1266C6.53072 25.0607 6.41909 24.9644 6.33731 24.8465C6.21967 24.6974 6.1561 24.5159 6.1561 24.3294C6.1561 24.1428 6.21967 23.9613 6.33731 23.8123C7.50222 22.4769 8.13755 20.7937 8.13216 19.0571V13.6059C8.1384 11.8326 8.80703 10.1193 10.0182 8.77329C11.3138 7.34962 13.1236 6.44227 15.0884 6.23134C15.6143 6.17983 16.1444 6.17983 16.6703 6.23134C16.9431 6.25825 17.2138 6.30021 17.4815 6.35699C19.2285 6.70385 20.7968 7.61423 21.9217 8.93469C23.0466 10.2551 23.6595 11.9049 23.657 13.6059V19.028C23.6576 20.7637 24.2922 22.4451 25.4518 23.7834C25.5765 23.8904 25.6665 24.029 25.7114 24.1831C25.7563 24.3372 25.7542 24.5002 25.7054 24.6531ZM15.9706 27.3691C15.5798 27.3716 15.1949 27.2787 14.8523 27.0994C14.5098 26.9201 14.2211 26.6602 14.0136 26.3445H17.9277C17.7225 26.6534 17.4399 26.9089 17.1053 27.0877C16.7707 27.2666 16.3947 27.3633 16.0112 27.3691H15.9706ZM14.845 4.79124C14.8302 4.64245 14.8481 4.49237 14.8976 4.35057C14.9472 4.20876 15.0273 4.0783 15.1328 3.96771C15.2383 3.85713 15.3668 3.76884 15.5102 3.70838C15.6536 3.64793 15.8087 3.61671 15.9655 3.61671C16.1223 3.61671 16.2775 3.64793 16.4209 3.70838C16.5643 3.76884 16.6928 3.85713 16.7983 3.96771C16.9038 4.0783 16.984 4.20876 17.0335 4.35057C17.0831 4.49237 17.101 4.64245 17.0861 4.79124C17.0872 4.90655 17.0665 5.0211 17.0252 5.12949C16.6886 5.09211 16.3501 5.07281 16.0112 5.07156C15.6723 5.0734 15.3338 5.0927 14.9972 5.12949C14.9299 5.02415 14.8787 4.91028 14.845 4.79124Z" fill="white" stroke="white" stroke-width="0.2"/>
</svg>
