<svg width="32" height="32" viewBox="0 0 32 32" fill="none" xmlns="http://www.w3.org/2000/svg">
<path d="M14.212 19.0002C14.256 16.2502 15.026 15.4142 16.368 14.5562C17.292 13.9842 17.996 13.2582 17.996 12.1802C17.996 10.9922 17.05 10.2222 15.884 10.2002C14.806 10.2222 13.794 10.9042 13.728 12.3122H11C11.088 9.45224 13.244 7.97824 15.884 8.00024C18.81 7.97824 20.79 9.60624 20.812 12.1362C20.79 13.8962 19.932 15.0402 18.524 15.8762C17.292 16.6242 16.764 17.3722 16.764 19.0002V19.1762H14.212V19.0002ZM13.86 22.2562C13.86 21.3542 14.63 20.6062 15.532 20.5842C16.434 20.6062 17.204 21.3542 17.204 22.2562C17.204 23.1802 16.434 23.9282 15.532 23.9282C14.63 23.9282 13.86 23.1802 13.86 22.2562Z" fill="white"/>
<rect x="0.7" y="0.7" width="30.6" height="30.6" rx="15.3" stroke="white" stroke-width="1.4"/>
</svg>
