<svg width="18" height="22" viewBox="0 0 18 22" fill="none" xmlns="http://www.w3.org/2000/svg">
<path d="M9.02466 2.22656C5.72343 2.22656 3.04055 4.76777 3.04055 7.89469V10.6248C3.04055 11.2011 2.78124 12.0797 2.47206 12.5709L1.3251 14.3752C0.616984 15.49 1.10569 16.7275 2.40224 17.1432C6.70083 18.5035 11.3385 18.5035 15.6371 17.1432C16.8439 16.7653 17.3725 15.4144 16.7142 14.3752L15.5673 12.5709C15.2681 12.0797 15.0088 11.2011 15.0088 10.6248V7.89469C15.0088 4.77722 12.3159 2.22656 9.02466 2.22656Z" stroke="#555566" stroke-width="1.5" stroke-miterlimit="10" stroke-linecap="round"/>
<path d="M10.9052 2.22591C10.6158 1.50593 9.8973 1 9.05904 1C8.22079 1 7.50229 1.50593 7.21289 2.22591" stroke="#555566" stroke-width="1.5" stroke-miterlimit="10" stroke-linecap="round" stroke-linejoin="round"/>
<path d="M12.1007 17.793C12.1007 19.5569 10.7061 21.0002 9.00154 21.0002C8.15442 21.0002 7.36929 20.6367 6.81144 20.0594C6.23102 19.4579 5.9042 18.6431 5.90234 17.793" stroke="#555566" stroke-width="1.5" stroke-miterlimit="10"/>
</svg>
