<svg width="27" height="26" viewBox="0 0 27 26" fill="none" xmlns="http://www.w3.org/2000/svg">
<path d="M7.25 21.0759H12.25L17.8125 24.7899C18.0002 24.9155 18.2184 24.9876 18.4437 24.9986C18.6691 25.0095 18.8932 24.9588 19.0921 24.8518C19.2909 24.7449 19.4572 24.5858 19.5731 24.3915C19.6889 24.1972 19.7501 23.975 19.75 23.7485V21.0759C23.5 21.0759 26 18.5664 26 14.8022V7.27372C26 3.50949 23.5 1 19.75 1H7.25C3.5 1 1 3.50949 1 7.27372V14.8022C1 18.5664 3.5 21.0759 7.25 21.0759Z" stroke="black" stroke-width="1.5" stroke-miterlimit="10" stroke-linecap="round" stroke-linejoin="round"/>
<path d="M18.5012 11.7539H18.5137M13.5 11.7539H13.5125M8.5 11.7539H8.51" stroke="black" stroke-width="2" stroke-linecap="round" stroke-linejoin="round"/>
</svg>
