<svg width="26" height="26" viewBox="0 0 26 26" fill="none" xmlns="http://www.w3.org/2000/svg">
<path d="M7.36235 21.1501L11.2295 24.23C11.7285 24.7433 12.8512 25 13.5996 25L18.34 25C19.8369 25 21.4586 23.845 21.8329 22.3051L24.8268 12.9371C25.4505 11.1405 24.3278 9.60059 22.4566 9.60059L17.4668 9.60059C16.7183 9.60059 16.0946 8.95895 16.2193 8.06065L16.843 3.95414C17.0925 2.79919 16.344 1.5159 15.2213 1.13092C14.2234 0.745934 12.9759 1.25925 12.4769 2.02922L7.36235 9.85725" stroke="black" stroke-width="1.5" stroke-miterlimit="10"/>
<path d="M1.00002 21.1496L1.00002 8.57347C1.00002 6.77687 1.74849 6.13523 3.49493 6.13523L4.74239 6.13523C6.48883 6.13523 7.23731 6.77687 7.23731 8.57347L7.23731 21.1497C7.2373 22.9462 6.48883 23.5879 4.74239 23.5879L3.49493 23.5879C1.74849 23.5879 1.00002 22.9462 1.00002 21.1496Z" stroke="black" stroke-width="1.5" stroke-linecap="round" stroke-linejoin="round"/>
</svg>
