<svg width="32" height="32" viewBox="0 0 32 32" fill="none" xmlns="http://www.w3.org/2000/svg">
<path d="M17.3067 30H14.6933C13.8102 30 13.0647 29.3385 12.9597 28.46L12.6808 26.2713C12.1243 26.0905 11.5877 25.8677 11.0778 25.6075L9.33483 26.962C8.62783 27.5092 7.63267 27.4462 7.019 26.815L5.1815 24.9775C4.555 24.3697 4.492 23.3745 5.03917 22.6687L6.39367 20.9245C6.13233 20.4147 5.9095 19.878 5.72983 19.3215L3.5365 19.0427C2.6615 18.9353 2 18.1898 2 17.3067V14.6933C2 13.8102 2.6615 13.0647 3.54 12.9597L5.72867 12.6808C5.9095 12.1243 6.13233 11.5877 6.3925 11.0778L5.03917 9.33483C4.49083 8.62783 4.555 7.6315 5.18733 7.01783L7.02483 5.18033C7.63267 4.55383 8.629 4.492 9.33367 5.038L11.0767 6.39367C11.5865 6.1335 12.1232 5.91067 12.6808 5.72983L12.9597 3.5365C13.0647 2.6615 13.8102 2 14.6933 2H17.3067C18.1898 2 18.9353 2.6615 19.0403 3.54L19.3192 5.72867C19.8768 5.9095 20.4135 6.13233 20.9233 6.3925L22.6663 5.038C23.3745 4.49083 24.3685 4.55383 24.9822 5.18617L26.8197 7.02367C27.4462 7.6315 27.5092 8.62667 26.962 9.3325L25.6075 11.0767C25.8688 11.5865 26.0917 12.1232 26.2713 12.6797L28.4647 12.9585C29.3385 13.0647 30 13.8102 30 14.6933V17.3067C30 18.1898 29.3385 18.9353 28.46 19.0403L26.2713 19.3192C26.0905 19.8757 25.8677 20.4123 25.6075 20.9222L26.962 22.6652C27.5103 23.3722 27.4462 24.3673 26.8138 24.981L24.9763 26.8185C24.3685 27.445 23.3722 27.5092 22.6675 26.9608L20.9233 25.6063C20.4135 25.8677 19.8768 26.0905 19.3203 26.2702L19.0415 28.4635C18.9353 29.3385 18.1898 30 17.3067 30ZM11.0183 24.33C11.1152 24.33 11.2143 24.3545 11.303 24.4035C11.9458 24.7628 12.6423 25.0522 13.3727 25.2622C13.5967 25.3263 13.7612 25.5177 13.7903 25.7487L14.117 28.3153C14.152 28.6082 14.4052 28.8333 14.6933 28.8333H17.3067C17.5948 28.8333 17.848 28.6082 17.8818 28.3212L18.2097 25.7498C18.2388 25.5188 18.4033 25.3275 18.6273 25.2633C19.3577 25.0533 20.0542 24.764 20.697 24.4047C20.9012 24.2903 21.1555 24.3102 21.3387 24.4537L23.3803 26.0403C23.6148 26.2223 23.9438 26.2072 24.1445 26.0007L25.9937 24.1515C26.2048 23.9462 26.2212 23.6172 26.0392 23.3815L24.4525 21.3398C24.309 21.1555 24.2892 20.9023 24.4035 20.6982C24.7628 20.0553 25.0522 19.3588 25.2622 18.6285C25.3263 18.4045 25.5177 18.24 25.7487 18.2108L28.3153 17.8842C28.6082 17.848 28.8333 17.5948 28.8333 17.3067V14.6933C28.8333 14.4052 28.6082 14.152 28.3212 14.1182L25.7498 13.7903C25.5188 13.7612 25.3275 13.5967 25.2633 13.3727C25.0533 12.6423 24.764 11.9458 24.4047 11.303C24.2903 11.0988 24.309 10.8457 24.4537 10.6613L26.0403 8.61967C26.2235 8.384 26.2072 8.055 26.0018 7.85667L24.1527 6.0075C23.9485 5.79517 23.6183 5.77883 23.3827 5.962L21.341 7.54867C21.1555 7.69217 20.9023 7.712 20.6982 7.59767C20.0577 7.23833 19.3612 6.95017 18.6285 6.739C18.4045 6.67483 18.24 6.4835 18.2108 6.2525L17.8842 3.68583C17.848 3.39183 17.5948 3.16667 17.3067 3.16667H14.6933C14.4052 3.16667 14.152 3.39183 14.1182 3.67883L13.7903 6.25017C13.7612 6.48117 13.5967 6.6725 13.3727 6.73783C12.64 6.94783 11.9435 7.23717 11.303 7.59533C11.0988 7.71083 10.8457 7.68983 10.6602 7.5475L8.6185 5.96083C8.38283 5.77767 8.055 5.794 7.8555 5.99933L6.00633 7.84967C5.79517 8.055 5.77883 8.384 5.96083 8.61967L7.5475 10.6613C7.691 10.8457 7.71083 11.0988 7.5965 11.303C7.236 11.9458 6.94783 12.6423 6.73783 13.3727C6.67367 13.5967 6.48233 13.7612 6.25133 13.7903L3.68467 14.117C3.39183 14.152 3.16667 14.4052 3.16667 14.6933V17.3067C3.16667 17.5948 3.39183 17.848 3.67883 17.8818L6.25017 18.2097C6.48117 18.2388 6.6725 18.4033 6.73667 18.6273C6.94667 19.3577 7.236 20.0542 7.59533 20.697C7.70967 20.9012 7.691 21.1543 7.54633 21.3387L5.95967 23.3803C5.7765 23.616 5.79283 23.945 5.99817 24.1433L7.84733 25.9925C8.0515 26.2037 8.37933 26.22 8.61733 26.038L10.659 24.4513C10.7652 24.372 10.8912 24.33 11.0183 24.33Z" fill="white"/>
<path d="M15.9998 21.8333C12.7833 21.8333 10.1665 19.2165 10.1665 16C10.1665 12.7835 12.7833 10.1666 15.9998 10.1666C19.2163 10.1666 21.8332 12.7835 21.8332 16C21.8332 19.2165 19.2163 21.8333 15.9998 21.8333ZM15.9998 11.3333C13.4262 11.3333 11.3332 13.4263 11.3332 16C11.3332 18.5736 13.4262 20.6666 15.9998 20.6666C18.5735 20.6666 20.6665 18.5736 20.6665 16C20.6665 13.4263 18.5735 11.3333 15.9998 11.3333Z" fill="white"/>
</svg>
