<svg width="20" height="20" viewBox="0 0 20 20" fill="none" xmlns="http://www.w3.org/2000/svg">
<path d="M15.5958 15.5958C14.8018 16.3897 13.8593 17.0195 12.8219 17.4492C11.7846 17.8788 10.6728 18.1 9.55 18.1C7.2824 18.1 5.10767 17.1992 3.50424 15.5958C1.9008 13.9923 1 11.8176 1 9.55C1 7.2824 1.9008 5.10767 3.50424 3.50424C5.10767 1.9008 7.2824 1 9.55 1C10.6728 1 11.7846 1.22115 12.8219 1.65083C13.8593 2.08051 14.8018 2.7103 15.5958 3.50424C16.3897 4.29818 17.0195 5.24072 17.4492 6.27806C17.8788 7.31539 18.1 8.4272 18.1 9.55C18.1 10.6728 17.8788 11.7846 17.4492 12.8219C17.0195 13.8593 16.3897 14.8018 15.5958 15.5958ZM15.5958 15.5958L19 19" stroke="#86869B" stroke-width="1.5" stroke-linecap="round" stroke-linejoin="round"/>
</svg>
