<svg width="24" height="25" viewBox="0 0 24 25" fill="none" xmlns="http://www.w3.org/2000/svg">
<path d="M19.3004 6.7998C19.6004 6.5998 19.6004 6.0998 19.4004 5.7998C19.2004 5.4998 18.7004 5.4998 18.4004 5.6998L17.1004 6.7998C15.6004 5.8998 13.9004 5.2998 12.0004 5.2998C6.10039 5.2998 1.50039 11.6998 1.30039 11.9998C1.10039 12.1998 1.10039 12.5998 1.30039 12.7998C1.40039 12.9998 2.90039 14.9998 5.20039 16.8998L4.30039 17.6998C4.00039 17.8998 4.00039 18.3998 4.20039 18.6998C4.30039 18.8998 4.50039 18.8998 4.70039 18.8998C4.90039 18.8998 5.00039 18.7998 5.10039 18.6998L6.30039 17.6998L7.40039 16.7998L19.3004 6.7998ZM9.20039 12.4998C9.20039 10.9998 10.4004 9.6998 12.0004 9.6998C12.5004 9.6998 12.9004 9.7998 13.3004 9.9998L9.40039 13.2998C9.30039 13.0998 9.20039 12.7998 9.20039 12.4998ZM2.70039 12.4998C3.80039 11.0998 7.60039 6.7998 12.0004 6.7998C13.4004 6.7998 14.7004 7.1998 15.9004 7.8998L14.4004 9.1998C13.7004 8.6998 12.9004 8.3998 12.0004 8.3998C9.70039 8.3998 7.90039 10.2998 7.90039 12.4998C7.90039 13.1998 8.10039 13.7998 8.30039 14.2998L6.30039 15.9998C4.60039 14.6998 3.30039 13.1998 2.70039 12.4998Z" fill="#9F9EA4"/>
<path d="M12.0012 15.2998C11.8012 15.2998 11.6012 15.2998 11.4012 15.1998L10.2012 16.1998C10.7012 16.4998 11.3012 16.5998 12.0012 16.5998C14.3012 16.5998 16.1012 14.6998 16.1012 12.4998C16.1012 12.0998 16.0012 11.6998 15.9012 11.2998L14.7012 12.2998V12.3998C14.8012 13.9998 13.5012 15.2998 12.0012 15.2998Z" fill="#9F9EA4"/>
<path d="M22.7012 12.1C22.6012 12 21.3012 10.2 19.3012 8.5L18.2012 9.4C19.7012 10.6 20.7012 11.9 21.2012 12.5C20.1012 13.9 16.3012 18.2 11.9012 18.2C10.8012 18.2 9.80117 17.9 8.80117 17.5L7.70117 18.5C9.00117 19.1 10.4012 19.6 12.0012 19.6C17.9012 19.6 22.5012 13.2 22.7012 12.9C22.9012 12.7 22.9012 12.3 22.7012 12.1Z" fill="#9F9EA4"/>
</svg>
